<svg width="24" height="24" viewBox="0 0 24 24" fill="none" xmlns="http://www.w3.org/2000/svg">
<path d="M21.75 9.00006C21.7511 10.1226 21.4723 11.2278 20.9387 12.2154C20.4051 13.2031 19.6335 14.042 18.694 14.6564C17.7544 15.2707 16.6765 15.641 15.5577 15.7337C14.439 15.8265 13.3148 15.6388 12.2869 15.1876L7.40627 20.8332C7.39502 20.8463 7.3819 20.8604 7.36971 20.8726C6.80703 21.4352 6.04389 21.7513 5.24815 21.7513C4.4524 21.7513 3.68926 21.4352 3.12658 20.8726C2.56391 20.3099 2.2478 19.5467 2.2478 18.751C2.2478 17.9553 2.56391 17.1921 3.12658 16.6294C3.13971 16.6172 3.15283 16.6041 3.1669 16.5929L8.81252 11.7132C8.30671 10.5561 8.13527 9.28048 8.31766 8.03094C8.50004 6.78139 9.02896 5.60797 9.8444 4.64377C10.6598 3.67957 11.7292 2.96319 12.9311 2.57588C14.133 2.18858 15.4194 2.14585 16.6444 2.45256C16.7707 2.48421 16.8865 2.54818 16.9806 2.63819C17.0746 2.72819 17.1437 2.84113 17.1808 2.96589C17.218 3.09066 17.2221 3.22295 17.1926 3.34976C17.1632 3.47656 17.1012 3.59352 17.0128 3.68912L13.5 7.50006L14.0306 9.97037L16.5 10.5001L20.311 6.98256C20.4066 6.8942 20.5235 6.83224 20.6503 6.80278C20.7771 6.77333 20.9094 6.77739 21.0342 6.81456C21.1589 6.85173 21.2719 6.92074 21.3619 7.0148C21.4519 7.10885 21.5159 7.22472 21.5475 7.351C21.6821 7.89035 21.7501 8.44416 21.75 9.00006Z" fill="#344054"/>
</svg>
