<?xml version="1.0" standalone="no"?>
<!DOCTYPE svg PUBLIC "-//W3C//DTD SVG 20010904//EN"
 "http://www.w3.org/TR/2001/REC-SVG-20010904/DTD/svg10.dtd">
<svg version="1.0" xmlns="http://www.w3.org/2000/svg"
 width="218.000000pt" height="143.000000pt" viewBox="0 0 218.000000 143.000000"
 preserveAspectRatio="xMidYMid meet">

<g transform="translate(0.000000,143.000000) scale(0.100000,-0.100000)"
fill="#000000" stroke="none">
<path d="M470 1345 c0 -3 16 -143 35 -311 19 -167 35 -308 35 -313 0 -5 -120
-87 -267 -182 -146 -95 -262 -174 -257 -176 17 -6 357 -73 369 -73 6 0 16 21
23 46 19 70 79 227 132 344 45 101 68 171 77 235 7 58 27 136 35 141 12 8 37
-10 57 -39 l17 -27 38 46 c21 25 34 49 30 53 -46 41 -324 261 -324 256z"/>
<path d="M1256 1080 c-284 -131 -303 -141 -393 -218 -59 -51 -74 -89 -49 -124
21 -29 20 -87 0 -117 -9 -13 -32 -29 -50 -37 -23 -10 -34 -21 -34 -35 0 -24 6
-21 72 34 47 39 47 40 50 106 l3 66 48 3 c48 3 48 3 45 -25 -2 -23 -8 -29 -35
-31 -19 -2 -33 1 -33 7 0 6 14 11 30 11 17 0 30 5 30 10 0 6 -18 10 -40 10
l-40 0 0 -60 0 -60 34 0 c19 0 42 7 50 16 19 18 19 20 6 45 -7 12 -7 19 -1 19
5 0 11 12 13 28 3 24 8 27 43 30 25 1 86 26 160 62 66 33 156 73 200 89 l80
29 52 133 c29 74 53 135 53 137 0 6 -36 -9 -294 -128z m-328 -417 c-2 -10 -13
-19 -26 -21 -17 -3 -22 2 -22 17 0 16 6 21 26 21 19 0 25 -5 22 -17z"/>
<path d="M651 1005 c-6 -22 -11 -52 -11 -66 0 -14 -7 -48 -15 -75 -14 -44 -14
-60 0 -154 29 -201 34 -245 34 -330 0 -73 -3 -92 -27 -140 -24 -48 -32 -55
-58 -55 -25 0 -29 -4 -31 -30 -1 -16 0 -49 3 -72 l5 -42 85 2 c65 1 85 5 89
17 5 19 35 191 35 207 0 6 -8 9 -18 6 -28 -7 -42 18 -44 83 -3 80 11 216 24
231 6 7 18 13 27 13 23 0 57 38 65 71 4 19 0 34 -14 52 -16 20 -19 34 -14 66
7 44 -9 76 -32 67 -19 -7 -45 40 -47 87 -1 23 -5 47 -9 52 -5 6 -15 19 -22 30
-13 18 -15 17 -25 -20z m46 -197 c6 -51 14 -102 19 -113 7 -18 6 -18 -9 -7
-26 22 -59 120 -47 142 5 10 10 30 10 44 0 14 4 26 8 26 5 0 14 -42 19 -92z
m15 -580 c6 -17 -1 -38 -13 -38 -5 0 -9 11 -9 25 0 26 14 34 22 13z m-57 -57
c-4 -17 -11 -31 -16 -31 -12 0 -11 12 1 46 14 35 24 24 15 -15z m85 9 c0 -5
-5 -10 -11 -10 -5 0 -7 5 -4 10 3 6 8 10 11 10 2 0 4 -4 4 -10z"/>
<path d="M1096 734 c-3 -9 -6 -30 -6 -48 0 -18 -5 -37 -12 -44 -17 -17 -2 -28
17 -12 9 7 15 29 15 51 0 35 3 39 25 39 23 0 25 -3 25 -50 0 -27 5 -50 10 -50
6 0 10 28 10 65 l0 65 -39 0 c-26 0 -41 -5 -45 -16z"/>
<path d="M1221 724 c-25 -32 -26 -52 -5 -82 18 -26 65 -30 88 -6 24 24 20 80
-6 98 -32 23 -54 20 -77 -10z m64 -10 c30 -31 0 -86 -39 -71 -28 11 -15 87 15
87 4 0 15 -7 24 -16z"/>
<path d="M1345 741 c-3 -2 -5 -31 -5 -63 0 -45 3 -58 15 -58 8 0 15 8 15 18 0
12 11 21 33 27 34 11 49 47 28 68 -10 10 -78 17 -86 8z m71 -32 c7 -12 -12
-29 -33 -29 -7 0 -13 9 -13 20 0 22 34 28 46 9z"/>
<path d="M1450 745 c0 -2 10 -26 23 -51 16 -35 19 -48 10 -51 -18 -6 -16 -23
2 -23 17 0 77 118 64 126 -5 3 -17 -11 -26 -31 l-17 -36 -18 36 c-15 29 -38
48 -38 30z"/>
<path d="M1580 730 c-24 -24 -26 -57 -4 -88 18 -26 65 -30 84 -7 16 19 5 34
-12 17 -36 -36 -81 11 -53 54 18 28 28 30 50 8 11 -11 20 -13 26 -7 7 7 3 16
-12 27 -31 21 -55 20 -79 -4z"/>
<path d="M1710 728 c-24 -26 -26 -56 -4 -86 19 -28 65 -29 89 -2 20 22 6 27
-24 8 -28 -17 -51 -3 -51 30 0 43 23 59 56 37 33 -22 46 -9 15 16 -31 25 -56
24 -81 -3z"/>
<path d="M1838 744 c-12 -11 -10 -124 2 -124 6 0 10 11 10 24 0 38 18 41 38 7
9 -17 23 -31 30 -31 10 0 9 9 -6 34 l-21 35 21 26 c31 40 10 45 -23 6 -29 -35
-33 -33 -41 12 -2 11 -6 15 -10 11z"/>
<path d="M1975 741 c-13 -23 -36 -113 -29 -119 4 -4 9 -1 11 6 3 6 17 12 33
12 16 0 30 -6 33 -12 2 -7 8 -9 13 -5 10 10 -27 119 -43 124 -6 2 -14 -1 -18
-6z m25 -40 c0 -5 3 -16 6 -25 4 -12 0 -16 -16 -16 -16 0 -20 4 -16 16 3 9 6
20 6 25 0 5 5 9 10 9 6 0 10 -4 10 -9z"/>
<path d="M2078 742 c-22 -4 -34 -48 -18 -66 8 -11 9 -20 0 -35 -8 -17 -8 -21
4 -21 8 0 18 9 21 20 8 25 47 28 43 4 -2 -10 3 -19 10 -21 10 -4 12 10 10 58
-3 59 -4 62 -28 63 -14 1 -33 0 -42 -2z m48 -39 c-3 -22 -23 -28 -41 -13 -19
16 -10 30 20 30 16 0 22 -5 21 -17z"/>
<path d="M974 695 c-3 -25 -4 -52 0 -60 6 -17 71 -21 81 -5 4 6 -7 10 -24 10
-21 0 -31 5 -31 15 0 8 9 15 19 15 11 0 23 5 26 10 4 6 -5 10 -19 10 -16 0

-26 6 -26 15 0 9 9 15 24 15 14 0 28 5 31 10 4 6 -10 10 -34 10 -39 0 -40 0
-47 -45z"/>
<path d="M578 532 c-39 -60 -111 -202 -123 -239 -13 -44 20 -23 103 66 88 96
89 99 69 183 l-12 48 -37 -58z"/>
<path d="M867 575 c-18 -18 -13 -40 11 -50 23 -9 49 21 36 42 -15 24 -29 26
-47 8z m10 -27 c-3 -8 -6 -5 -6 6 -1 11 2 17 5 13 3 -3 4 -12 1 -19z"/>
<path d="M937 583 c-2 -5 -4 -20 -5 -35 -2 -24 2 -28 26 -27 17 1 20 3 10 6
-21 5 -24 23 -5 23 8 0 7 4 -3 10 -13 8 -12 10 3 10 9 0 17 5 17 10 0 12 -37
14 -43 3z"/>
<path d="M1000 573 c0 -10 -3 -27 -6 -38 -4 -17 0 -20 25 -20 29 0 31 2 31 38
0 33 -3 37 -25 37 -17 0 -25 -6 -25 -17z m40 -23 c0 -11 -7 -20 -15 -20 -8 0
-15 9 -15 20 0 11 7 20 15 20 8 0 15 -9 15 -20z"/>
<path d="M1070 555 c0 -30 3 -35 23 -34 16 1 18 2 5 6 -10 2 -18 9 -18 14 0 5
8 9 18 10 14 0 14 2 -3 9 -17 7 -17 9 -2 9 24 1 22 21 -3 21 -16 0 -20 -7 -20
-35z"/>
<path d="M1127 583 c-8 -14 -5 -63 4 -63 5 0 9 4 9 9 0 5 9 11 21 14 27 7 21
41 -8 45 -11 2 -23 0 -26 -5z m38 -23 c-3 -5 -10 -10 -16 -10 -5 0 -9 5 -9 10
0 6 7 10 16 10 8 0 12 -4 9 -10z"/>
<path d="M1193 557 c-10 -33 -10 -34 18 -33 32 1 33 4 19 40 -13 35 -25 33
-37 -7z"/>
<path d="M1250 557 c0 -32 3 -35 34 -39 34 -4 34 -4 29 32 -8 46 -13 51 -13
12 0 -22 -5 -32 -15 -32 -9 0 -15 9 -15 24 0 14 -4 28 -10 31 -6 4 -10 -8 -10
-28z"/>
<path d="M1330 556 c0 -36 12 -47 26 -24 4 6 2 14 -4 16 -6 2 -9 9 -6 17 3 7
1 16 -5 20 -7 4 -11 -7 -11 -29z"/>
<path d="M1369 573 c-10 -12 -11 -17 -2 -20 7 -2 9 -11 6 -19 -3 -8 0 -14 6
-14 6 0 11 16 11 35 0 40 -2 42 -21 18z"/>
<path d="M1408 583 c-9 -44 3 -82 15 -50 4 9 8 8 16 -3 8 -12 11 -7 11 23 0
30 -4 37 -20 37 -11 0 -21 -3 -22 -7z m32 -17 c0 -11 -19 -15 -25 -6 -3 5 1
10 9 10 9 0 16 -2 16 -4z"/>
<path d="M1480 577 c0 -12 43 -57 55 -57 3 0 5 17 5 38 -1 33 -2 35 -14 20
-16 -22 -26 -23 -26 -3 0 8 -4 15 -10 15 -5 0 -10 -6 -10 -13z"/>
<path d="M1550 554 c0 -24 4 -34 13 -31 6 2 12 9 11 15 -1 7 -2 21 -2 32 -3
35 -22 21 -22 -16z"/>
<path d="M1589 574 c-10 -13 -10 -17 0 -24 8 -4 10 -13 7 -19 -4 -6 -2 -11 3
-11 6 0 11 16 11 35 0 39 -2 41 -21 19z"/>
<path d="M1629 588 c-6 -18 -5 -68 2 -68 5 0 9 4 9 9 0 5 9 11 21 14 28 7 21
41 -9 45 -12 2 -22 2 -23 0z m36 -28 c-3 -5 -10 -10 -16 -10 -5 0 -9 5 -9 10
0 6 7 10 16 10 8 0 12 -4 9 -10z"/>
<path d="M1693 555 c-9 -27 -9 -35 0 -32 7 2 13 13 15 25 5 30 22 28 22 -3 0
-14 5 -25 11 -25 6 0 9 14 7 33 -2 23 -8 33 -24 35 -16 2 -23 -5 -31 -33z"/>
<path d="M1760 556 c0 -37 13 -48 24 -21 3 8 10 15 15 15 6 0 8 -7 5 -15 -4
-8 -1 -15 5 -15 6 0 11 17 11 37 l0 36 -27 -24 c-19 -18 -25 -19 -20 -7 3 10
2 20 -3 23 -6 4 -10 -9 -10 -29z"/>
<path d="M1847 583 c-3 -5 -8 -21 -11 -38 -6 -28 -5 -30 26 -31 32 0 33 1 30
38 -3 29 -8 38 -22 38 -11 0 -21 -3 -23 -7z m33 -33 c0 -11 -7 -20 -15 -20 -8
0 -15 9 -15 20 0 11 7 20 15 20 8 0 15 -9 15 -20z"/>
<path d="M1911 556 c-1 -38 0 -39 18 -22 18 17 19 17 24 -1 3 -10 5 0 6 22 l1
40 -19 -24 -19 -25 -5 25 c-3 16 -5 12 -6 -15z"/>
<path d="M1981 555 c1 -22 3 -34 6 -27 2 6 11 12 18 12 7 0 15 -6 18 -12 8
-24 18 0 14 34 -4 30 -5 31 -12 11 -4 -13 -11 -23 -16 -23 -6 0 -14 10 -19 23
-7 18 -9 16 -9 -18z"/>
<path d="M2057 583 c-11 -10 -8 -63 3 -63 6 0 10 11 10 25 0 16 6 25 15 25 8
0 15 5 15 10 0 11 -33 14 -43 3z"/>
<path d="M2110 564 c-14 -36 -13 -39 19 -40 28 -1 28 0 20 30 -5 17 -9 32 -9
33 0 2 -5 3 -10 3 -6 0 -15 -12 -20 -26z m30 -14 c0 -5 -4 -10 -10 -10 -5 0
-10 5 -10 10 0 6 5 10 10 10 6 0 10 -4 10 -10z"/>
<path d="M862 450 l-1 -45 18 23 c22 25 36 29 28 7 -4 -8 -2 -17 3 -20 6 -4
10 12 10 37 l-1 43 -24 -29 -23 -29 -5 29 c-3 21 -4 16 -5 -16z"/>
<path d="M962 450 c0 -25 2 -37 5 -27 6 21 19 22 27 2 3 -8 10 -15 16 -15 7 0
8 6 1 18 -6 10 -8 30 -5 43 5 21 4 22 -6 7 -6 -10 -15 -18 -20 -18 -5 0 -11 8
-13 18 -3 9 -5 -3 -5 -28z"/>
<path d="M1036 474 c-27 -27 -12 -64 26 -64 33 0 43 53 14 72 -16 11 -23 10
-40 -8z m42 -26 c-2 -13 -10 -23 -18 -23 -8 0 -16 10 -18 23 -3 17 2 22 18 22
16 0 21 -5 18 -22z"/>
<path d="M1111 448 c0 -33 2 -38 9 -23 8 19 8 19 16 1 7 -18 8 -18 21 0 12 16
13 16 13 1 0 -9 5 -17 10 -17 12 0 13 67 1 74 -4 3 -14 -7 -20 -22 l-13 -27
-14 28 c-20 37 -24 34 -23 -15z"/>
<path d="M1211 459 c-15 -44 -15 -44 19 -44 24 0 29 4 25 18 -3 9 -8 26 -11
37 -8 29 -20 25 -33 -11z m29 -9 c0 -5 -4 -10 -10 -10 -5 0 -10 5 -10 10 0 6
5 10 10 10 6 0 10 -4 10 -10z"/>
<path d="M1320 471 c0 -12 -7 -21 -15 -21 -8 0 -15 7 -15 15 0 8 -4 15 -10 15
-5 0 -10 -16 -10 -35 0 -19 5 -35 10 -35 6 0 10 5 10 10 0 14 28 12 33 -2 2
-7 6 4 9 25 2 21 0 40 -4 43 -4 3 -8 -4 -8 -15z"/>
<path d="M1367 483 c-2 -5 -7 -24 -11 -43 -6 -35 -6 -35 30 -35 30 0 34 3 30
20 -3 11 -6 30 -6 43 0 15 -6 22 -19 22 -11 0 -22 -3 -24 -7z m33 -38 c0 -16
-6 -25 -15 -25 -9 0 -15 9 -15 25 0 16 6 25 15 25 9 0 15 -9 15 -25z"/>
<path d="M1457 484 c-11 -11 -8 -74 3 -74 6 0 10 14 10 30 0 20 5 30 15 30 10
0 15 -10 15 -30 0 -16 5 -30 11 -30 6 0 9 16 7 38 -3 31 -7 37 -28 40 -14 2
-29 0 -33 -4z"/>
<path d="M1546 474 c-19 -19 -20 -36 -4 -52 34 -34 79 7 52 46 -18 26 -27 27
-48 6z m39 -29 c0 -28 -29 -25 -33 3 -3 19 0 23 15 20 10 -2 18 -12 18 -23z"/>
<path d="M1626 478 c-2 -7 -7 -26 -9 -43 -5 -29 -4 -30 29 -30 35 0 35 0 32
40 -2 33 -7 41 -26 43 -12 2 -24 -3 -26 -10z m37 -29 c3 -12 0 -22 -9 -26 -20
-7 -24 -1 -17 25 7 28 19 28 26 1z"/>
<path d="M1707 473 c-19 -69 -19 -70 19 -69 34 1 35 1 32 41 -2 32 -7 41 -25
43 -14 2 -23 -3 -26 -15z m43 -22 c0 -22 -15 -35 -29 -27 -13 9 -1 46 15 46 8
0 14 -9 14 -19z"/>
<path d="M1780 450 c0 -37 2 -40 28 -39 l27 0 -25 11 c-21 9 -22 12 -7 15 18
5 18 5 0 19 -17 13 -17 13 5 14 13 0 20 4 17 10 -3 6 -15 10 -26 10 -16 0 -19
-7 -19 -40z"/>
<path d="M1847 483 c-11 -10 -8 -73 3 -73 6 0 10 7 10 15 0 8 3 14 8 14 21 -4
32 3 32 20 0 24 -37 41 -53 24z m43 -23 c0 -5 -7 -10 -15 -10 -8 0 -15 5 -15
10 0 6 7 10 15 10 8 0 15 -4 15 -10z"/>
<path d="M1910 484 c0 -6 5 -15 12 -22 8 -8 8 -15 -2 -27 -7 -8 -10 -18 -6
-22 3 -4 13 2 21 13 13 17 14 17 15 2 0 -10 5 -18 10 -18 6 0 10 8 10 18 1 16
1 16 14 0 18 -24 29 -23 16 2 -8 14 -7 26 1 43 12 22 12 22 -9 4 -15 -14 -21
-15 -26 -5 -5 11 -7 11 -12 0 -5 -10 -10 -10 -25 4 -10 9 -19 13 -19 8z"/>
<path d="M2057 473 c-11 -11 -17 -13 -17 -5 0 7 -4 12 -10 12 -5 0 -10 -16
-10 -35 0 -35 20 -51 20 -17 1 15 2 15 15 -2 8 -11 18 -17 21 -13 4 4 1 13 -6
22 -10 12 -10 18 0 30 18 22 7 28 -13 8z"/>
<path d="M2090 445 c0 -40 11 -45 33 -12 l16 22 0 -22 c1 -13 6 -23 11 -23 6
0 10 16 8 35 -2 40 -5 41 -30 18 -17 -15 -18 -15 -18 0 0 10 -4 17 -10 17 -5
0 -10 -16 -10 -35z"/>
<path d="M1164 356 c-3 -8 -23 -17 -45 -21 -65 -11 -119 -85 -119 -164 0 -37
-28 -78 -61 -90 -36 -12 -165 -15 -173 -3 -4 6 23 180 39 250 5 21 10 22 106
22 98 0 100 0 97 -22 -3 -21 -9 -23 -69 -26 -62 -3 -67 -5 -72 -27 -2 -14 0
-25 4 -25 5 0 9 9 9 20 0 18 7 20 64 20 67 0 76 6 76 51 0 18 -8 19 -110 19
-106 0 -110 -1 -115 -22 -6 -29 -45 -263 -45 -273 0 -4 45 -6 100 -3 87 3 102
7 124 27 13 12 27 33 30 46 l6 23 29 -29 c16 -16 36 -29 44 -29 9 0 23 -3 33
-7 12 -4 15 -3 10 5 -4 7 -18 12 -32 12 -35 0 -74 42 -74 80 0 73 43 125 112
136 20 4 39 13 42 20 7 19 76 19 76 1 0 -8 18 -19 40 -26 44 -13 60 -34 60
-81 0 -72 -51 -130 -114 -130 -16 0 -30 -8 -37 -21 -9 -18 -17 -21 -50 -16
-22 3 -37 1 -33 -4 3 -5 23 -9 44 -9 28 0 42 5 49 19 6 11 26 21 50 25 40 6
83 44 96 85 5 18 7 18 31 -6 21 -21 32 -25 65 -20 l40 5 -7 -54 -6 -54 46 0
c39 0 46 3 51 23 13 59 45 244 45 260 0 15 -7 18 -47 15 l-47 -3 -11 -55 c-8
-46 -14 -56 -34 -58 -23 -4 -23 -3 -16 57 l7 61 -46 0 c-44 0 -45 -1 -52 -35
-3 -20 -4 -39 0 -42 3 -4 6 3 6 15 0 40 11 52 46 52 l34 0 -2 -57 -3 -58 30 0
c28 0 31 3 40 55 11 54 12 55 48 58 44 4 43 15 14 -148 l-23 -125 -37 -3 c-41
-4 -40 -5 -28 71 7 42 6 47 -8 41 -9 -4 -30 -9 -47 -11 -25 -4 -35 1 -53 22
-11 15 -21 37 -21 48 0 31 -46 85 -80 92 -16 4 -30 13 -30 21 0 20 -88 20 -96
0z"/>
<path d="M1645 348 c-3 -7 -16 -73 -28 -146 -26 -146 -26 -146 35 -140 31 3
34 6 47 61 7 32 16 55 20 52 3 -3 13 -30 21 -58 l16 -52 91 -2 c56 -2 95 1 99
8 3 6 14 54 23 107 16 93 18 97 44 100 32 4 31 6 12 -95 -23 -122 -23 -123 30
-123 25 0 45 1 45 3 0 1 11 65 25 141 14 77 25 144 25 148 0 5 -80 7 -177 6
l-177 -3 -31 -52 c-29 -52 -51 -70 -41 -35 3 9 8 34 12 55 l6 37 -46 0 c-28 0
-49 -5 -51 -12z m82 -15 c-3 -10 -8 -35 -12 -55 -9 -57 17 -49 57 17 31 52 35
55 71 55 l39 0 -18 -27 c-9 -16 -29 -45 -42 -66 l-26 -38 22 -68 c12 -37 22
-71 22 -75 0 -4 -17 -6 -37 -4 -37 3 -39 5 -56 61 -21 67 -43 75 -52 20 -11
-67 -22 -83 -55 -83 -37 0 -36 -3 -8 157 l21 123 39 0 c33 0 39 -3 35 -17z
m153 -113 c-11 -63 -20 -117 -20 -122 0 -25 -19 8 -34 60 l-18 59 43 66 c24
36 45 62 47 58 1 -5 -6 -59 -18 -121z m256 103 c-3 -16 -12 -68 -21 -118 -25
-144 -21 -135 -60 -135 -41 0 -40 -3 -20 110 20 113 21 110 -20 110 -28 0 -36
-4 -40 -22 -6 -27 -35 -188 -35 -194 0 -2 -16 -4 -35 -4 -42 0 -42 -6 -13 156
l22 124 114 0 114 0 -6 -27z"/>
<path d="M1669 338 c-1 -2 -11 -58 -23 -125 l-22 -123 22 0 c18 0 23 8 30 53
9 49 11 52 39 52 27 0 31 -4 45 -52 12 -45 18 -53 38 -53 15 0 22 5 20 12 -3
7 -13 36 -22 65 l-17 52 35 53 c40 59 43 68 21 68 -8 0 -32 -26 -52 -57 -30
-45 -44 -58 -63 -58 -27 0 -28 3 -16 73 6 38 4 42 -14 42 -11 0 -20 -1 -21 -2z"/>
<path d="M1925 318 c-3 -13 -13 -69 -23 -125 l-18 -103 21 0 c20 0 24 10 41
108 l19 107 53 3 c60 4 58 10 37 -108 -19 -108 -19 -110 4 -110 19 0 22 9 58
218 l5 32 -96 0 c-91 0 -96 -1 -101 -22z"/>
<path d="M591 296 l-43 -43 28 -6 c19 -3 32 0 40 11 12 17 27 72 21 78 -2 2
-22 -16 -46 -40z"/>
<path d="M825 330 c-4 -7 -44 -218 -45 -237 0 -2 36 -3 80 -3 96 0 120 16 120
80 0 47 -18 60 -84 60 -44 0 -46 1 -46 29 0 56 7 61 76 61 36 0 64 4 64 10 0
13 -157 13 -165 0z m103 -132 c17 -17 15 -54 -4 -72 -9 -10 -33 -16 -58 -16
l-43 0 8 43 c4 23 8 45 9 50 0 12 75 8 88 -5z"/>
<path d="M857 193 c-4 -3 -7 -16 -6 -27 0 -20 1 -20 9 2 10 24 29 29 48 10 8
-8 8 -17 1 -31 -9 -15 -17 -18 -42 -13 -23 5 -28 3 -20 -5 16 -16 54 -7 70 17
12 19 12 24 -2 38 -17 16 -46 21 -58 9z"/>
<path d="M1181 326 c-6 -7 -30 -16 -54 -19 -62 -8 -89 -44 -85 -111 l3 -51 47
-15 c27 -8 48 -21 48 -27 0 -7 11 -13 25 -13 14 0 25 6 25 14 0 8 16 15 40 19
58 7 87 30 100 77 19 70 -5 110 -65 110 -14 0 -28 7 -31 15 -8 19 -38 20 -53
1z m5 -43 c-3 -10 -10 -46 -17 -80 -11 -60 -13 -63 -40 -63 -43 0 -63 37 -49
89 11 43 45 70 88 71 18 0 22 -4 18 -17z m95 -4 c42 -42 2 -132 -62 -141 -22
-4 -29 -1 -29 12 0 22 21 133 27 143 9 14 43 7 64 -14z"/>
<path d="M1124 272 c-36 -24 -45 -95 -14 -112 29 -15 37 -7 45 46 3 26 9 53
12 60 6 15 -24 19 -43 6z m25 -44 c-15 -69 -17 -72 -34 -58 -19 16 -19 50 1
78 27 38 43 28 33 -20z"/>
<path d="M1227 273 c-3 -4 -8 -34 -12 -65 -8 -66 1 -73 41 -33 33 33 31 98 -3
103 -11 2 -23 0 -26 -5z m41 -40 c2 -22 -3 -38 -18 -53 -12 -12 -24 -20 -26
-17 -3 3 -2 28 2 56 5 40 10 51 23 49 10 -2 17 -15 19 -35z"/>
<path d="M1400 314 c-14 -35 -12 -98 2 -112 17 -17 73 -15 87 2 10 12 9 14 -7
9 -35 -9 -53 23 -46 78 6 42 4 49 -10 49 -9 0 -21 -12 -26 -26z"/>
<path d="M1545 303 c-4 -21 -9 -47 -12 -58 -4 -11 -7 -31 -8 -45 -1 -14 -6
-44 -10 -67 -6 -39 -5 -43 13 -43 22 0 25 10 52 164 14 80 13 86 -10 86 -14 0
-21 -9 -25 -37z"/>
<path d="M926 247 c23 -7 49 -18 58 -26 11 -9 16 -10 16 -2 0 15 -61 41 -92
40 -15 -1 -9 -5 18 -12z"/>
</g>
</svg>