<svg width="56" height="23" viewBox="0 0 56 23" fill="none" xmlns="http://www.w3.org/2000/svg">
<path d="M19.1845 11.8665V14.5239C19.1845 17.9143 19.2313 21.1215 19.3249 23H17.6404C14.8329 19.5179 8.37567 12.1414 2.99465 6.36853C2.7607 6.13944 2.57353 5.81873 2.29278 5.49801L2.1992 5.54383V11.2251C2.1992 15.2112 2.38636 20.2968 2.80749 22.9542C2.38636 22.9084 1.77807 22.9084 1.40374 22.9084C1.02941 22.9084 0.467914 22.9542 0 22.9542C0.280749 20.2968 0.421124 15.2112 0.421124 11.2251V9.5757C0.421124 5.36056 0.327539 1.55777 0.280748 0H2.10561C6.12968 4.85657 12.8209 12.1873 16.7513 16.3566C16.9385 16.5398 17.1257 16.7689 17.4064 17.0896L17.4532 17.0438V11.8665C17.4532 7.88048 17.266 2.79482 16.8449 0.13745C17.4064 0.183267 17.8743 0.183268 18.2955 0.183268C18.6698 0.183268 19.2313 0.13745 19.6056 0.13745C19.3717 2.79482 19.1845 7.88048 19.1845 11.8665Z" fill="#201600"/>
<path d="M55.2139 0.137695C54.8864 0.183512 54.1377 0.183513 53.8102 0.183513C53.4358 0.183513 52.8743 0.137695 52.5 0.137695C51.3302 5.04009 48.3356 14.5242 46.7915 18.8767H46.6979C45.2941 15.2114 42.9078 7.97236 41.1765 2.3369L39.3516 7.56001C40.9425 12.2333 42.9546 18.6018 44.2179 22.9086C44.6391 22.8628 45.2006 22.8628 45.6685 22.8628C46.0896 22.8628 46.7447 22.9086 47.119 22.9086C49.131 16.8608 53.3423 5.13172 55.2607 0.183513L55.2139 0.137695Z" fill="#A5907B"/>
<path d="M39.8663 0.183513C39.6324 0.183513 39.4452 0.183513 39.258 0.183513C38.8369 0.183513 38.3222 0.137695 37.8075 0.137695C36.357 5.17754 33.2687 14.4783 31.6778 18.8767H31.631C29.8997 13.7911 27.4666 5.22335 26.2032 0.137695C25.5481 0.183512 24.8931 0.183513 24.3784 0.183513C23.8636 0.183513 23.0682 0.183512 22.1792 0.137695L22.0856 0.183513C23.9572 5.36081 27.5134 16.9066 29.1511 22.9086C29.5254 22.8628 30.0869 22.8628 30.6016 22.8628C31.1163 22.8628 31.7246 22.9086 32.0521 22.9086C33.4559 18.7393 35.1872 13.6995 36.7313 9.34686L39.8663 0.183513Z" fill="#201600"/>
</svg>
