<svg width="24" height="24" viewBox="0 0 24 24" fill="none" xmlns="http://www.w3.org/2000/svg">
<path d="M15.419 18.3403C15.4928 18.4534 15.5347 18.5844 15.5402 18.7194C15.5457 18.8544 15.5146 18.9884 15.4503 19.1072C15.3859 19.226 15.2907 19.3252 15.1746 19.3943C15.0586 19.4634 14.926 19.4999 14.7909 19.5H0.959015C0.823917 19.4999 0.691332 19.4634 0.575268 19.3943C0.459204 19.3252 0.36397 19.226 0.299628 19.1072C0.235287 18.9884 0.204226 18.8544 0.209729 18.7194C0.215232 18.5844 0.257093 18.4534 0.33089 18.3403C1.38661 16.7152 2.93948 15.4751 4.75776 14.805C3.75258 14.1358 2.98943 13.1609 2.58117 12.0244C2.17291 10.8879 2.14122 9.65024 2.49079 8.49437C2.84035 7.3385 3.55261 6.32581 4.52224 5.60605C5.49187 4.88629 6.66738 4.49768 7.87495 4.49768C9.08252 4.49768 10.258 4.88629 11.2277 5.60605C12.1973 6.32581 12.9096 7.3385 13.2591 8.49437C13.6087 9.65024 13.577 10.8879 13.1687 12.0244C12.7605 13.1609 11.9973 14.1358 10.9921 14.805C12.8104 15.4751 14.3633 16.7152 15.419 18.3403ZM23.6606 18.3262C22.6046 16.708 21.0552 15.4732 19.2421 14.805C20.4288 14.0056 21.2663 12.7841 21.5841 11.389C21.9019 9.99398 21.6761 8.53026 20.9527 7.2958C20.2293 6.06134 19.0627 5.14894 17.6903 4.7443C16.318 4.33967 14.843 4.47322 13.5656 5.11778C13.5167 5.143 13.474 5.17865 13.4405 5.2222C13.407 5.26576 13.3834 5.31616 13.3715 5.36983C13.3596 5.4235 13.3597 5.47912 13.3716 5.53277C13.3836 5.58642 13.4073 5.63678 13.4409 5.68028C14.3907 6.8651 14.9362 8.32294 14.9975 9.84026C15.0587 11.3576 14.6325 12.8546 13.7812 14.1122C13.7262 14.1943 13.7058 14.2949 13.7246 14.392C13.7434 14.4891 13.7998 14.5749 13.8815 14.6306C14.9914 15.4052 15.9416 16.3866 16.68 17.5209C16.9777 17.977 17.0994 18.5258 17.0221 19.065C17.0134 19.1186 17.0165 19.1735 17.0311 19.2258C17.0457 19.2781 17.0715 19.3267 17.1068 19.368C17.142 19.4094 17.1858 19.4426 17.2351 19.4654C17.2844 19.4882 17.3381 19.5 17.3925 19.5H23.0456C23.2107 19.5 23.3713 19.4456 23.5023 19.345C23.6333 19.2445 23.7275 19.1036 23.7703 18.944C23.7963 18.8391 23.8 18.7299 23.7811 18.6234C23.7623 18.517 23.7212 18.4157 23.6606 18.3262Z" fill="#344054"/>
</svg>
