<svg width="24" height="24" viewBox="0 0 24 24" fill="none" xmlns="http://www.w3.org/2000/svg">
<path d="M8.72058 11.3151L14.7249 4.70824C14.7807 4.64686 14.8469 4.59817 14.9198 4.56494C14.9927 4.53172 15.0708 4.51462 15.1497 4.51462C15.2286 4.51462 15.3067 4.53172 15.3796 4.56494C15.4525 4.59817 15.5187 4.64686 15.5745 4.70824C15.6303 4.76963 15.6746 4.8425 15.7048 4.9227C15.7349 5.0029 15.7505 5.08887 15.7505 5.17568C15.7505 5.26249 15.7349 5.34845 15.7048 5.42865C15.6746 5.50885 15.6303 5.58173 15.5745 5.64311L9.99425 11.7825L15.5745 17.9219C15.6872 18.0459 15.7505 18.214 15.7505 18.3894C15.7505 18.5647 15.6872 18.7328 15.5745 18.8568C15.4619 18.9808 15.3091 19.0504 15.1497 19.0504C14.9904 19.0504 14.8376 18.9808 14.7249 18.8568L8.72058 12.25C8.66475 12.1886 8.62047 12.1157 8.59025 12.0355C8.56003 11.9553 8.54448 11.8693 8.54448 11.7825C8.54448 11.6957 8.56003 11.6097 8.59025 11.5295C8.62047 11.4493 8.66475 11.3764 8.72058 11.3151Z" fill="black"/>
</svg>
