<svg width="24" height="24" viewBox="0 0 24 24" fill="none" xmlns="http://www.w3.org/2000/svg">
<rect width="24" height="24" rx="12" fill="#936B18"/>
<path d="M20.4304 9.75116C20.3601 9.53468 20.2278 9.34365 20.0498 9.20186C19.8717 9.06006 19.6559 8.97377 19.4292 8.95373L15.1238 8.58256L13.4362 4.5693C13.3483 4.35871 13.2001 4.17884 13.0102 4.05231C12.8203 3.92579 12.5972 3.85828 12.3691 3.85828C12.1409 3.85828 11.9178 3.92579 11.7279 4.05231C11.538 4.17884 11.3898 4.35871 11.3019 4.5693L9.61936 8.58256L5.30887 8.9559C5.08127 8.97503 4.86437 9.06093 4.68539 9.20283C4.50641 9.34473 4.37331 9.53631 4.30278 9.75356C4.23225 9.9708 4.22743 10.204 4.28892 10.424C4.35042 10.644 4.47549 10.8409 4.64845 10.9901L7.91865 13.8478L6.93853 18.0916C6.88671 18.3137 6.90149 18.5461 6.98105 18.7598C7.0606 18.9735 7.20139 19.1591 7.38582 19.2932C7.57024 19.4273 7.79011 19.5041 8.01795 19.514C8.24578 19.5239 8.47147 19.4663 8.66679 19.3486L12.364 17.1013L16.0691 19.3486C16.2645 19.4663 16.4901 19.5239 16.718 19.514C16.9458 19.5041 17.1657 19.4273 17.3501 19.2932C17.5345 19.1591 17.6753 18.9735 17.7549 18.7598C17.8344 18.5461 17.8492 18.3137 17.7974 18.0916L16.818 13.8434L20.0875 10.9901C20.2604 10.8404 20.3852 10.6429 20.4463 10.4225C20.5073 10.202 20.5017 9.96847 20.4304 9.75116ZM19.327 10.1136L16.0575 12.967C15.8984 13.1054 15.78 13.2846 15.7152 13.4853C15.6503 13.6859 15.6413 13.9005 15.6893 14.1059L16.6716 18.3569L12.9693 16.1096C12.7887 15.9996 12.5813 15.9414 12.3698 15.9414C12.1583 15.9414 11.9509 15.9996 11.7703 16.1096L8.07306 18.3569L9.04883 14.1088C9.09679 13.9034 9.08784 13.6888 9.02295 13.4882C8.95806 13.2875 8.83969 13.1083 8.68056 12.9699L5.40964 10.118C5.40937 10.1158 5.40937 10.1136 5.40964 10.1115L9.71868 9.73884C9.92905 9.72029 10.1304 9.64466 10.3009 9.5201C10.4715 9.39554 10.6048 9.22678 10.6865 9.03202L12.3691 5.02383L14.0509 9.03202C14.1326 9.22678 14.2659 9.39554 14.4365 9.5201C14.607 9.64466 14.8083 9.72029 15.0187 9.73884L19.3285 10.1115C19.3285 10.1115 19.3285 10.1158 19.3285 10.1165L19.327 10.1136Z" fill="#FDFCFB"/>
</svg>
