<svg width="24" height="24" viewBox="0 0 24 24" fill="none" xmlns="http://www.w3.org/2000/svg">
<path d="M19.6555 11.4694C19.7253 11.5391 19.7806 11.6218 19.8183 11.7128C19.8561 11.8039 19.8755 11.9015 19.8755 12C19.8755 12.0986 19.8561 12.1962 19.8183 12.2873C19.7806 12.3783 19.7253 12.461 19.6555 12.5307L11.9633 20.2182C10.9786 21.2028 9.64306 21.7559 8.25051 21.7558C6.85797 21.7557 5.52249 21.2024 4.53787 20.2177C3.55326 19.233 3.00016 17.8974 3.00024 16.5049C3.00033 15.1123 3.5536 13.7769 4.53834 12.7922L13.844 3.34973C14.547 2.64596 15.5008 2.25028 16.4956 2.24976C17.4903 2.24923 18.4446 2.64389 19.1483 3.34692C19.8521 4.04995 20.2478 5.00376 20.2483 5.99853C20.2488 6.99329 19.8542 7.94752 19.1512 8.6513L9.84366 18.0938C9.42097 18.5165 8.84768 18.754 8.24991 18.754C7.65213 18.754 7.07884 18.5165 6.65616 18.0938C6.23347 17.6711 5.996 17.0978 5.996 16.5C5.996 15.9023 6.23347 15.329 6.65616 14.9063L14.4655 6.97317C14.5339 6.90019 14.6163 6.84164 14.7076 6.80095C14.799 6.76026 14.8976 6.73827 14.9976 6.73625C15.0976 6.73424 15.197 6.75225 15.29 6.78923C15.3829 6.82621 15.4675 6.8814 15.5388 6.95157C15.6101 7.02173 15.6666 7.10545 15.7051 7.19779C15.7435 7.29013 15.7631 7.38923 15.7627 7.48926C15.7623 7.58929 15.7419 7.68822 15.7026 7.78023C15.6634 7.87225 15.6062 7.95548 15.5343 8.02505L7.72397 15.9666C7.65404 16.036 7.59846 16.1185 7.5604 16.2093C7.52235 16.3002 7.50256 16.3976 7.50216 16.4961C7.50177 16.5946 7.52079 16.6922 7.55812 16.7834C7.59545 16.8746 7.65037 16.9575 7.71975 17.0274C7.78912 17.0973 7.87159 17.1529 7.96245 17.191C8.0533 17.229 8.15076 17.2488 8.24927 17.2492C8.34777 17.2496 8.44538 17.2306 8.53654 17.1932C8.62769 17.1559 8.7106 17.101 8.78053 17.0316L18.0871 7.5938C18.5098 7.17198 18.7476 6.59952 18.7482 6.00237C18.7488 5.40521 18.5122 4.83227 18.0904 4.40958C17.6686 3.98689 17.0961 3.74908 16.4989 3.74846C15.9018 3.74785 15.3288 3.98448 14.9062 4.4063L5.60241 13.845C5.25387 14.193 4.97729 14.6063 4.78845 15.0611C4.59961 15.516 4.50221 16.0036 4.50182 16.4961C4.50143 16.9886 4.59805 17.4764 4.78616 17.9316C4.97428 18.3868 5.2502 18.8004 5.59819 19.149C5.94617 19.4975 6.35939 19.7741 6.81427 19.9629C7.26914 20.1518 7.75675 20.2491 8.24927 20.2495C8.74178 20.2499 9.22955 20.1533 9.68472 19.9652C10.1399 19.7771 10.5536 19.5012 10.9021 19.1532L18.5952 11.4657C18.7364 11.3256 18.9273 11.2473 19.1262 11.248C19.325 11.2488 19.5154 11.3284 19.6555 11.4694Z" fill="#344054"/>
</svg>
