<svg width="24" height="24" viewBox="0 0 24 24" fill="none" xmlns="http://www.w3.org/2000/svg">
<path d="M2.25 11.25C2.25124 10.0569 2.72574 8.91299 3.56939 8.06935C4.41303 7.2257 5.55691 6.7512 6.75 6.74996H10.4813C10.7541 6.73402 15.5081 6.39933 20.0353 2.60246C20.2539 2.41885 20.5204 2.30145 20.8034 2.26403C21.0865 2.22662 21.3743 2.27076 21.6331 2.39126C21.8919 2.51176 22.111 2.70361 22.2645 2.94429C22.4181 3.18497 22.4998 3.46447 22.5 3.74996V18.75C22.5 19.0355 22.4184 19.3152 22.2649 19.556C22.1114 19.7968 21.8924 19.9888 21.6335 20.1094C21.3747 20.23 21.0868 20.2742 20.8037 20.2369C20.5206 20.1995 20.254 20.0821 20.0353 19.8984C16.4944 16.9284 12.8166 16.0771 11.25 15.839V18.8128C11.2503 19.0599 11.1895 19.3034 11.0731 19.5214C10.9566 19.7394 10.7881 19.9253 10.5825 20.0625L9.55125 20.7496C9.35192 20.8827 9.12362 20.966 8.88546 20.9927C8.6473 21.0194 8.40622 20.9886 8.18241 20.9029C7.95859 20.8173 7.75855 20.6793 7.59904 20.5004C7.43954 20.3215 7.32521 20.1071 7.26562 19.875L6.16219 15.7162C5.07963 15.5722 4.08621 15.0399 3.36662 14.2184C2.64702 13.3969 2.25023 12.3421 2.25 11.25ZM21 18.7434V3.74996C16.9866 7.11652 12.8784 7.96871 11.25 8.17871V14.3175C12.8766 14.5312 16.9837 15.3815 21 18.7434ZM8.71875 19.4934V19.5037L9.75 18.8165V15.75H7.725L8.71875 19.4934ZM6.75 14.25H9.75V8.24996H6.75C5.95435 8.24996 5.19129 8.56603 4.62868 9.12864C4.06607 9.69125 3.75 10.4543 3.75 11.25C3.75 12.0456 4.06607 12.8087 4.62868 13.3713C5.19129 13.9339 5.95435 14.25 6.75 14.25Z" fill="#344054"/>
</svg>
