<svg width="24" height="24" viewBox="0 0 24 24" fill="none" xmlns="http://www.w3.org/2000/svg">
<path d="M6.78906 6.74996H10.5203C10.7931 6.73402 15.5472 6.39933 20.0744 2.60246C20.293 2.41885 20.5595 2.30145 20.8425 2.26403C21.1255 2.22662 21.4134 2.27076 21.6722 2.39126C21.931 2.51176 22.15 2.70361 22.3036 2.94429C22.4572 3.18497 22.5388 3.46447 22.5391 3.74996V18.75C22.539 19.0355 22.4575 19.3152 22.304 19.556C22.1505 19.7968 21.9314 19.9888 21.6726 20.1094C21.4137 20.23 21.1258 20.2742 20.8427 20.2369C20.5596 20.1995 20.2931 20.0821 20.0744 19.8984C16.5334 16.9284 12.8556 16.0771 11.2891 15.839V18.8128C11.2894 19.0599 11.2286 19.3034 11.1122 19.5214C10.9957 19.7394 10.8272 19.9253 10.6216 20.0625L9.59031 20.7496C9.39099 20.8827 9.16268 20.966 8.92453 20.9927C8.68637 21.0194 8.44529 20.9886 8.22147 20.9029C7.99765 20.8173 7.79761 20.6793 7.63811 20.5004C7.4786 20.3215 7.36427 20.1071 7.30469 19.875L6.20125 15.7162C5.06056 15.5761 4.01671 15.0048 3.28379 14.1196C2.55087 13.2343 2.18443 12.1022 2.25961 10.9554C2.33479 9.8086 2.84591 8.73402 3.68812 7.95205C4.53034 7.17007 5.63984 6.73997 6.78906 6.74996ZM8.75781 19.4896V19.5L9.78906 18.8128V15.75H7.76406L8.75781 19.4896ZM6.78906 14.25H9.78906V8.24996H6.78906C5.99341 8.24996 5.23035 8.56603 4.66774 9.12864C4.10513 9.69125 3.78906 10.4543 3.78906 11.25C3.78906 12.0456 4.10513 12.8087 4.66774 13.3713C5.23035 13.9339 5.99341 14.25 6.78906 14.25Z" fill="#344054"/>
</svg>
