<?xml version="1.0" standalone="no"?>
<!DOCTYPE svg PUBLIC "-//W3C//DTD SVG 20010904//EN"
 "http://www.w3.org/TR/2001/REC-SVG-20010904/DTD/svg10.dtd">
<svg version="1.0" xmlns="http://www.w3.org/2000/svg"
 width="140.000000pt" height="86.000000pt" viewBox="0 0 140.000000 86.000000"
 preserveAspectRatio="xMidYMid meet">
<metadata>
Created by potrace 1.16, written by Peter Selinger 2001-2019
</metadata>
<g transform="translate(0.000000,86.000000) scale(0.100000,-0.100000)"
fill="#ffffff" stroke="none">
<path d="M0 605 l0 -255 123 78 c138 89 137 86 118 207 -5 39 -13 105 -17 148
l-6 77 -109 0 -109 0 0 -255z"/>
<path d="M469 842 c14 -9 40 -32 59 -49 19 -18 38 -33 43 -33 4 0 9 -15 11
-34 l3 -33 55 25 c150 68 227 104 242 113 10 5 52 9 93 9 l75 0 0 -75 c0 -41
-4 -83 -9 -93 -13 -26 -28 -64 -40 -99 l-10 -33 75 0 c72 0 74 1 74 25 0 24 2
25 75 25 73 0 75 -1 75 -25 0 -24 3 -25 55 -25 l55 0 0 160 0 160 -477 -1
c-453 0 -477 -1 -454 -17z"/>
<path d="M0 70 l0 -70 130 0 130 0 0 49 0 49 -72 12 c-40 6 -86 15 -102 21
-16 5 -42 9 -57 9 l-29 0 0 -70z"/>
</g>
</svg>
