<svg width="140" height="23" viewBox="0 0 140 23" fill="none" xmlns="http://www.w3.org/2000/svg">
<path d="M70.0936 22.6792C70 22.6792 69.8128 22.6334 69.6724 22.6334C69.5789 22.6334 69.3917 22.6334 69.2981 22.6792C68.643 20.48 67.5668 17.2728 66.9117 15.5776H66.865C66.1631 17.5019 65.1337 20.4342 64.385 22.6792C64.2914 22.6792 64.1043 22.6334 63.9639 22.6334C63.8703 22.6334 63.7299 22.6334 63.5895 22.6792C62.9345 20.48 61.5775 16.1732 60.8289 14.2489L60.8757 14.2031C61.1096 14.2489 61.2968 14.2489 61.4839 14.2489C61.6711 14.2489 61.8583 14.2489 61.9518 14.2031C62.4198 16.0816 63.4492 19.4262 64.1978 21.4422H64.2446C64.8061 19.8386 66.0227 16.1274 66.631 14.2031C66.7714 14.2031 66.9117 14.2489 67.0053 14.2489C67.0989 14.2489 67.2393 14.2489 67.3797 14.2031C68.0347 16.494 69.2045 19.8844 69.8128 21.4422H69.8596C70.3743 19.9302 71.6845 15.9442 72.1056 14.2031C72.1992 14.2031 72.3395 14.2489 72.4799 14.2489C72.6203 14.2489 72.8075 14.2489 72.901 14.2031L72.9478 14.2489C72.3863 15.99 70.7954 20.48 70.0936 22.6792Z" fill="#201600"/>
<path d="M81.1364 22.6789C80.996 22.6789 80.6685 22.6331 80.5281 22.6331C80.3409 22.6331 80.1538 22.6331 79.9666 22.6789C79.7326 21.8084 79.2179 20.5255 78.7032 19.3343C78.2821 19.3343 77.5335 19.3343 76.972 19.3343C76.4572 19.3343 75.9893 19.3343 75.4278 19.3343C74.8195 20.7088 74.3516 21.9 74.1177 22.6789C73.9773 22.6789 73.8369 22.6331 73.6966 22.6331C73.5094 22.6331 73.3222 22.6331 73.2754 22.6789L73.2286 22.6331C74.6792 19.7924 76.0829 16.906 77.3463 14.0195H77.4867C78.6097 16.8602 80.5749 21.4418 81.1364 22.6789ZM77.2059 15.4857C76.8316 16.2645 76.0829 17.914 75.6618 18.8303C76.0361 18.8303 76.5976 18.8303 77.0655 18.8303C77.5334 18.8303 78.1417 18.8303 78.5161 18.8303C78.2821 18.143 77.5802 16.402 77.2059 15.4857Z" fill="#201600"/>
<path d="M84.4117 14.7521C84.3649 15.2561 84.3649 15.8975 84.3649 16.2182V18.9672C84.3649 20.0669 84.4117 21.7163 84.4585 22.6784C84.3182 22.6784 84.0842 22.6326 83.9438 22.6326C83.7567 22.6326 83.5227 22.6326 83.3823 22.6784C83.4291 21.6704 83.4759 20.0669 83.4759 18.9672V16.2182C83.4759 15.8517 83.4759 15.2103 83.4291 14.7521C82.3997 14.7521 81.2767 14.8437 80.7152 14.9354C80.7152 14.7979 80.7152 14.7063 80.7152 14.6147C80.7152 14.523 80.7152 14.4314 80.7152 14.2939C81.4171 14.3398 82.8208 14.3398 83.897 14.3398C84.9732 14.3398 86.377 14.2939 87.0788 14.2939C87.0788 14.4772 87.0788 14.523 87.0788 14.6147C87.0788 14.7063 87.0788 14.7979 87.0788 14.9354C86.5641 14.7979 85.4411 14.7521 84.4117 14.7521Z" fill="#201600"/>
<path d="M89.746 22.6335C89.4185 22.6335 88.7634 22.6793 88.4827 22.6793C88.5295 21.6713 88.5762 20.0677 88.5762 18.9681V17.7311C88.5762 16.6315 88.5295 15.257 88.4827 14.249C88.7634 14.249 89.2781 14.2948 89.6992 14.2948C90.5415 14.2948 91.7113 14.2948 92.5535 14.249C92.5535 14.3865 92.5535 14.4781 92.5535 14.5697C92.5535 14.6614 92.5535 14.7988 92.5535 14.8905C91.992 14.7988 90.8222 14.7072 89.5589 14.7072C89.5121 15.257 89.5121 16.5857 89.5121 17.5936V18.006C91.0562 18.006 91.8516 17.9602 92.3196 17.8685C92.3196 18.006 92.3196 18.0976 92.3196 18.2351C92.3196 18.3725 92.3196 18.4642 92.3196 18.5558C91.8516 18.4642 91.0562 18.4642 89.5121 18.4642V18.9223C89.5121 20.0219 89.5589 21.7171 89.5589 22.1753C90.7286 22.1753 91.7113 22.1295 92.6471 21.9462C92.6471 22.1295 92.6471 22.2211 92.6471 22.3128C92.6471 22.4044 92.6471 22.496 92.6471 22.6335C91.8049 22.6793 90.8222 22.6335 89.746 22.6335Z" fill="#201600"/>
<path d="M100.368 22.6793C100.134 22.6793 99.9933 22.6793 99.8529 22.6793C99.6658 22.6793 99.2914 22.7251 99.1043 22.7251C98.5428 21.9921 96.7647 19.747 95.6885 18.6474C95.6417 18.6016 95.5481 18.6016 95.4545 18.6016V18.9681C95.4545 20.0677 95.5013 21.7172 95.5481 22.7251C95.4078 22.7251 95.1738 22.6793 94.9866 22.6793C94.7995 22.6793 94.6123 22.6793 94.4719 22.7251C94.5187 21.7172 94.5655 20.1136 94.5655 19.014V17.7311C94.5655 16.6315 94.5655 15.257 94.5187 14.249C94.8463 14.249 95.127 14.2948 95.4078 14.2948C95.6417 14.2948 95.8289 14.2948 96.0628 14.249C96.2968 14.249 96.5307 14.249 96.7179 14.249C98.1217 14.249 99.3382 14.7072 99.3382 16.1733C99.3382 17.7769 97.9345 18.4183 96.6711 18.51C97.2794 19.243 99.619 21.8546 100.414 22.6335L100.368 22.6793ZM96.2032 14.6156C96.016 14.6156 95.7821 14.6156 95.5013 14.6614C95.4545 15.4403 95.4545 16.9522 95.4545 17.6853V18.1893H95.9225C97.139 18.1893 98.3556 17.8685 98.3556 16.2191C98.3088 14.8905 97.1858 14.6156 96.2032 14.6156Z" fill="#201600"/>
<path d="M102.707 14.7072C102.66 15.3028 102.66 16.5857 102.66 17.5936V18.006C104.204 18.006 105.047 17.9602 105.515 17.8685C105.515 18.0518 105.515 18.1434 105.515 18.2351C105.515 18.3267 105.515 18.3725 105.515 18.5558C105.047 18.4642 104.251 18.4642 102.66 18.4642V18.9223C102.66 20.0219 102.707 21.6713 102.754 22.6793C102.614 22.6793 102.38 22.6335 102.239 22.6335C102.052 22.6335 101.818 22.6335 101.678 22.6793C101.725 21.6713 101.771 20.0677 101.771 18.9681V17.7311C101.771 16.6315 101.725 15.257 101.678 14.249C101.958 14.249 102.473 14.2948 102.894 14.2948C103.737 14.2948 104.906 14.2948 105.749 14.249C105.749 14.4323 105.749 14.5239 105.749 14.5697C105.749 14.6614 105.749 14.753 105.749 14.8905C105.187 14.7988 103.971 14.7072 102.707 14.7072Z" fill="#201600"/>
<path d="M113.376 22.6793C113.142 22.6793 113.001 22.6793 112.861 22.6793C112.674 22.6793 112.299 22.7251 112.112 22.7251C111.551 21.9921 109.773 19.747 108.697 18.6474C108.65 18.6016 108.556 18.6016 108.463 18.6016V18.9681C108.463 20.0677 108.509 21.7172 108.556 22.7251C108.416 22.7251 108.182 22.6793 107.995 22.6793C107.808 22.6793 107.62 22.6793 107.48 22.7251C107.527 21.7172 107.574 20.1136 107.574 19.014V17.7311C107.574 16.6315 107.574 15.257 107.527 14.249C107.854 14.249 108.135 14.2948 108.416 14.2948C108.65 14.2948 108.837 14.2948 109.071 14.249C109.305 14.249 109.539 14.249 109.726 14.249C111.13 14.249 112.346 14.7072 112.346 16.1733C112.346 17.7769 110.943 18.4183 109.679 18.51C110.287 19.243 112.627 21.8546 113.422 22.6335L113.376 22.6793ZM109.211 14.6156C109.024 14.6156 108.79 14.6156 108.509 14.6614C108.463 15.4403 108.463 16.9522 108.463 17.6853V18.1893H108.931C110.147 18.1893 111.364 17.8685 111.364 16.2191C111.317 14.8905 110.194 14.6156 109.211 14.6156Z" fill="#201600"/>
<path d="M118.804 22.8622C116.136 22.8622 114.312 21.167 114.312 18.4638C114.312 15.7606 116.183 14.0654 118.804 14.0654C121.564 14.0654 123.342 15.7606 123.342 18.4638C123.342 21.1212 121.471 22.8622 118.804 22.8622ZM118.804 14.4778C116.791 14.4778 115.341 15.8065 115.341 18.4638C115.341 21.1212 116.791 22.4499 118.804 22.4499C120.816 22.4499 122.266 21.1212 122.266 18.4638C122.266 15.8523 120.816 14.4778 118.804 14.4778Z" fill="#201600"/>
<path d="M132.233 22.725C131.39 21.6712 128.677 18.7847 126.197 16.1732C126.103 16.0815 126.056 16.0357 125.963 15.8983H125.916V18.3266C125.916 19.7927 126.009 21.6712 126.15 22.6791C126.056 22.6791 125.869 22.6333 125.729 22.6333C125.588 22.6333 125.448 22.6333 125.261 22.6791C125.354 21.6712 125.448 19.8385 125.448 18.3266V17.7309C125.448 16.1732 125.401 14.7528 125.401 14.1572H125.541C126.945 15.715 129.94 18.9222 131.578 20.6174C131.624 20.709 131.718 20.7548 131.812 20.8465H131.858V18.5556C131.858 17.0895 131.765 15.211 131.671 14.203C131.812 14.203 131.952 14.2489 132.092 14.2489C132.186 14.2489 132.373 14.2489 132.56 14.203C132.467 15.211 132.42 17.0437 132.42 18.5556V19.5636C132.42 20.8007 132.467 21.9919 132.467 22.725H132.233Z" fill="#201600"/>
<path d="M137.333 14.7521C137.286 15.2561 137.286 15.8975 137.286 16.2182V18.9672C137.286 20.0669 137.333 21.7163 137.38 22.6784C137.239 22.6784 137.005 22.6326 136.865 22.6326C136.678 22.6326 136.444 22.6326 136.303 22.6784C136.35 21.6704 136.397 20.0669 136.397 18.9672V16.2182C136.397 15.8517 136.397 15.2103 136.35 14.7521C135.321 14.7521 134.198 14.8437 133.636 14.9354C133.636 14.7979 133.636 14.7063 133.636 14.6147C133.636 14.523 133.636 14.4314 133.636 14.2939C134.338 14.3398 135.742 14.3398 136.818 14.3398C137.894 14.3398 139.298 14.2939 140 14.2939C140 14.4772 140 14.523 140 14.6147C140 14.7063 140 14.7979 140 14.9354C139.532 14.7979 138.362 14.7521 137.333 14.7521Z" fill="#201600"/>
<path d="M67.8477 8.88902C67.0054 7.83523 64.2915 4.94878 61.8116 2.33723C61.718 2.24559 61.6712 2.19977 61.5776 2.06232H61.5308V4.49061C61.5308 5.95675 61.6244 7.83523 61.7648 8.8432C61.6712 8.8432 61.484 8.79739 61.3436 8.79739C61.2033 8.79739 61.0629 8.79738 60.8757 8.8432C60.9693 7.83523 61.0629 6.00256 61.0629 4.49061V3.89499C61.0629 2.33722 61.0161 0.916907 61.0161 0.321289H61.1565C62.5602 1.87906 65.5549 5.08623 67.1926 6.78145C67.2394 6.87308 67.333 6.96472 67.4265 7.01053H67.4733V4.7197C67.4733 3.25356 67.3797 1.37507 67.2862 0.367105C67.4265 0.367105 67.5669 0.412923 67.7073 0.412923C67.8009 0.412923 67.988 0.412922 68.1752 0.367105C68.0816 1.37507 68.0348 3.20774 68.0348 4.7197V5.72766C68.0348 6.96472 68.0816 8.15595 68.0816 8.88902H67.8477Z" fill="#201600"/>
<path d="M74.492 9.02631C71.8249 9.02631 70 7.33109 70 4.6279C70 1.92471 71.8717 0.229492 74.492 0.229492C77.2527 0.229492 79.0307 1.92471 79.0307 4.6279C79.0307 7.28527 77.1591 9.02631 74.492 9.02631ZM74.492 0.641843C72.4799 0.641843 71.0294 1.97053 71.0294 4.6279C71.0294 7.28527 72.4799 8.61395 74.492 8.61395C76.504 8.61395 77.9545 7.28527 77.9545 4.6279C77.9545 2.01635 76.504 0.641843 74.492 0.641843Z" fill="#201600"/>
<path d="M86.8918 8.84345C86.6579 8.84345 86.5175 8.84345 86.3771 8.84345C86.1899 8.84345 85.8156 8.88926 85.6284 8.88926C85.0669 8.1562 83.2889 5.91118 82.2127 4.81157C82.1659 4.76576 82.0723 4.76576 81.9787 4.76576V5.13229C81.9787 6.23189 82.0255 7.8813 82.0723 8.88926C81.9319 8.88926 81.698 8.84345 81.5108 8.84345C81.3236 8.84345 81.1365 8.84345 80.9961 8.88926C81.0429 7.8813 81.0897 6.27771 81.0897 5.17811V3.94106C81.0897 2.84146 81.0897 1.46695 81.0429 0.458984C81.3704 0.458984 81.6512 0.504802 81.9319 0.504802C82.1659 0.504802 82.353 0.504801 82.587 0.458984C82.821 0.458984 83.0549 0.458984 83.2421 0.458984C84.6458 0.458984 85.8624 0.917152 85.8624 2.38329C85.8624 3.98687 84.4587 4.62831 83.1953 4.71994C83.8036 5.45301 86.1431 8.06456 86.8918 8.84345ZM82.7274 0.779702C82.5402 0.779702 82.3063 0.779701 82.0255 0.825518C81.9787 1.6044 81.9787 3.11636 81.9787 3.84942V4.35341H82.4466C83.6632 4.35341 84.8798 4.03269 84.8798 2.38329C84.8798 1.0546 83.7568 0.779702 82.7274 0.779702Z" fill="#201600"/>
<path d="M90.5883 0.917152C90.5415 1.42114 90.5415 2.06257 90.5415 2.38329V5.13229C90.5415 6.23189 90.5882 7.88129 90.635 8.84345C90.4947 8.84345 90.2607 8.79763 90.1203 8.79763C89.9332 8.79763 89.6992 8.79763 89.5588 8.84345C89.6056 7.83548 89.6524 6.23189 89.6524 5.13229V2.38329C89.6524 2.01675 89.6524 1.37532 89.6056 0.917152C88.5762 0.917152 87.4532 1.00879 86.8917 1.10042C86.8917 0.962969 86.8917 0.871335 86.8917 0.779702C86.8917 0.688068 86.8917 0.596435 86.8917 0.458984C87.5936 0.504801 88.9973 0.504802 90.0735 0.504802C91.1497 0.504802 92.5535 0.458984 93.2554 0.458984C93.2554 0.642251 93.2554 0.688068 93.2554 0.779702C93.2554 0.871335 93.2554 0.962969 93.2554 1.10042C92.7407 0.962969 91.6177 0.917152 90.5883 0.917152Z" fill="#201600"/>
<path d="M101.07 8.84336C100.882 8.84336 100.648 8.84336 100.508 8.88918C100.555 7.88121 100.602 6.27763 100.602 5.13221V4.58241C100.134 4.58241 99.0575 4.58241 98.1217 4.58241C97.2327 4.58241 96.0629 4.58241 95.5482 4.58241V5.13221C95.5482 6.23181 95.595 7.88121 95.6417 8.88918C95.5014 8.88918 95.2674 8.84336 95.127 8.84336C94.9399 8.84336 94.7059 8.84336 94.5656 8.88918C94.6123 7.88121 94.6591 6.27763 94.6591 5.17802V3.94097C94.6591 2.84137 94.6123 1.46687 94.5656 0.458902C94.7059 0.458902 94.9399 0.50472 95.127 0.50472C95.3142 0.50472 95.5482 0.504719 95.6417 0.458902C95.595 1.46687 95.5482 2.47484 95.5482 3.57444V4.07842C96.0161 4.07842 97.3262 4.07842 98.1217 4.07842C98.9172 4.07842 100.087 4.07842 100.602 4.07842V3.52862C100.602 2.42902 100.555 1.37524 100.508 0.413086C100.648 0.413086 100.882 0.458902 101.07 0.458902C101.257 0.458902 101.491 0.458903 101.631 0.413086C101.584 1.42105 101.537 2.79556 101.537 3.89516V5.13221C101.537 6.23181 101.584 7.88121 101.631 8.84336C101.491 8.84336 101.257 8.84336 101.07 8.84336Z" fill="#201600"/>
<path d="M19.1845 11.8665V14.5239C19.1845 17.9143 19.2313 21.1215 19.3249 23H17.6404C14.8329 19.5179 8.37567 12.1414 2.99465 6.36853C2.7607 6.13944 2.57353 5.81873 2.29278 5.49801L2.1992 5.54383V11.2251C2.1992 15.2112 2.38636 20.2968 2.80749 22.9542C2.38636 22.9084 1.77807 22.9084 1.40374 22.9084C1.02941 22.9084 0.467914 22.9542 0 22.9542C0.280749 20.2968 0.421124 15.2112 0.421124 11.2251V9.5757C0.421124 5.36056 0.327539 1.55777 0.280748 0H2.10561C6.12968 4.85657 12.8209 12.1873 16.7513 16.3566C16.9385 16.5398 17.1257 16.7689 17.4064 17.0896L17.4532 17.0438V11.8665C17.4532 7.88048 17.266 2.79482 16.8449 0.13745C17.4064 0.183267 17.8743 0.183268 18.2955 0.183268C18.6698 0.183268 19.2313 0.13745 19.6056 0.13745C19.3717 2.79482 19.1845 7.88048 19.1845 11.8665Z" fill="#201600"/>
<path d="M55.214 0.137695C54.8864 0.183512 54.1378 0.183513 53.8102 0.183513C53.4359 0.183513 52.8744 0.137695 52.5001 0.137695C51.3303 5.04009 48.3356 14.5242 46.7915 18.8767H46.6979C45.2942 15.2114 42.9078 7.97236 41.1766 2.3369L39.3517 7.56001C40.9426 12.2333 42.9546 18.6018 44.218 22.9086C44.6391 22.8628 45.2006 22.8628 45.6685 22.8628C46.0897 22.8628 46.7447 22.9086 47.1191 22.9086C49.1311 16.8608 53.3423 5.13172 55.2608 0.183513L55.214 0.137695Z" fill="#A5907B"/>
<path d="M39.8663 0.183513C39.6324 0.183513 39.4452 0.183513 39.258 0.183513C38.8369 0.183513 38.3222 0.137695 37.8075 0.137695C36.357 5.17754 33.2687 14.4783 31.6778 18.8767H31.631C29.8997 13.7911 27.4666 5.22335 26.2032 0.137695C25.5481 0.183512 24.8931 0.183513 24.3784 0.183513C23.8636 0.183513 23.0682 0.183512 22.1792 0.137695L22.0856 0.183513C23.9572 5.36081 27.5134 16.9066 29.1511 22.9086C29.5254 22.8628 30.0869 22.8628 30.6016 22.8628C31.1163 22.8628 31.7246 22.9086 32.0521 22.9086C33.4559 18.7393 35.1872 13.6995 36.7313 9.34686L39.8663 0.183513Z" fill="#201600"/>
</svg>
