<svg width="20" height="20" viewBox="0 0 20 20" fill="none" xmlns="http://www.w3.org/2000/svg">
<path d="M17.7625 8.08539C17.7582 8.08101 17.7538 8.07789 17.7494 8.07351L11.2719 2.09414C10.5582 1.43414 9.44128 1.43539 8.72815 2.09414L2.25065 8.07351C2.24628 8.07789 2.2419 8.08101 2.23753 8.08539L0.929401 9.29289C0.675651 9.52664 0.660026 9.92227 0.893776 10.176C1.12815 10.4291 1.52315 10.446 1.7769 10.211L2.05815 9.95101V16.4835C2.05815 17.5173 2.8994 18.3585 3.93315 18.3585H7.6669H12.3325H16.0663C17.1 18.3585 17.9413 17.5173 17.9413 16.4835V9.95101L18.2225 10.211C18.3425 10.3223 18.495 10.3773 18.6463 10.3773C18.815 10.3773 18.9825 10.3098 19.1057 10.1766C19.34 9.92289 19.3238 9.52727 19.07 9.29352L17.7625 8.08539ZM8.29253 17.1085V11.991H11.7082V17.1085H8.29253ZM16.6919 16.4835C16.6919 16.8285 16.4113 17.1085 16.0669 17.1085H12.9582V11.991C12.9582 11.3016 12.3975 10.741 11.7082 10.741H8.29253C7.60315 10.741 7.04253 11.3016 7.04253 11.991V17.1085H3.93315C3.58878 17.1085 3.30815 16.8285 3.30815 16.4835V8.79727L9.57628 3.01164C9.81378 2.79227 10.1857 2.79102 10.4238 3.01164L16.6913 8.79727V16.4835H16.6919Z" fill="#878175"/>
</svg>
