<svg width="20" height="18" viewBox="0 0 20 18" fill="none" xmlns="http://www.w3.org/2000/svg">
<path d="M8.28939 11.0115H11.7081V17.3803H8.28939V11.0115Z" fill="#2B271F"/>
<path d="M19.1078 9.19258C18.9828 9.33008 18.8141 9.39258 18.6453 9.39258C18.4953 9.39258 18.3453 9.34258 18.2203 9.23008L17.9391 8.96758V15.5051C17.9391 16.5363 17.1016 17.3801 16.0641 17.3801H12.9578V11.0113C12.9578 10.3176 12.3953 9.76133 11.7078 9.76133H8.28908C7.60158 9.76133 7.03908 10.3176 7.03908 11.0113V17.3801H3.93283C2.90158 17.3801 2.05783 16.5363 2.05783 15.5051V8.96758L1.77658 9.23008C1.52033 9.46133 1.12658 9.44883 0.895329 9.19258C0.657829 8.94258 0.676579 8.54258 0.926579 8.31133L2.23908 7.10508L2.24527 7.09258L8.72658 1.11133C9.43908 0.455078 10.5578 0.455078 11.2703 1.11133L17.7516 7.09258L17.7641 7.10508L19.0703 8.31133C19.3266 8.54258 19.3391 8.94264 19.1078 9.19258Z" fill="#2B271F"/>
</svg>
